# This file uses centimeters as units for non-parametric coordinates.

mtllib Chapel Floors.mtl
g default
v -18.927113 35.363546 29.202663
v -9.709876 35.363546 29.202663
v -0.492638 35.363546 29.202663
v 8.724600 35.363546 29.202663
v 17.941836 35.363546 29.202663
v 27.159073 35.363546 29.202663
v -18.927113 35.363546 14.255393
v -9.709876 35.363546 14.255393
v -0.492638 35.363546 14.255393
v 8.724600 35.363546 14.255393
v 17.941836 35.363546 14.255393
v 27.159073 35.363546 14.255393
v -18.927113 35.363546 -0.691879
v -9.709876 35.363546 -0.691879
v -0.492638 35.363546 -0.691879
v 8.724600 35.363546 -0.691879
v 17.941836 35.363546 -0.691879
v 27.159073 35.363546 -0.691879
v -18.927113 35.363546 -15.639151
v -9.709876 35.363546 -15.639151
v -0.492638 35.363546 -15.639151
v 8.724600 35.363546 -15.639151
v 17.941836 35.363546 -15.639151
v 27.159073 35.363546 -15.639151
v -18.927113 35.363546 -30.586420
v -9.709876 35.363546 -30.586420
v -0.492638 35.363546 -30.586420
v 8.724600 35.363546 -30.586420
v 17.941836 35.363546 -30.586420
v 27.159073 35.363546 -30.586420
v -18.927113 35.363546 -55.313629
v -9.709876 35.363546 -61.640069
v -0.492638 35.363546 -61.640069
v 8.724600 35.363546 -61.640069
v 17.941836 35.363546 -61.640069
v 27.159073 35.363546 -55.313629
vt 0.000000 0.000000
vt 0.200000 0.000000
vt 0.400000 0.000000
vt 0.600000 0.000000
vt 0.800000 0.000000
vt 1.000000 0.000000
vt 0.000000 0.200000
vt 0.200000 0.200000
vt 0.400000 0.200000
vt 0.600000 0.200000
vt 0.800000 0.200000
vt 1.000000 0.200000
vt 0.000000 0.400000
vt 0.200000 0.400000
vt 0.400000 0.400000
vt 0.600000 0.400000
vt 0.800000 0.400000
vt 1.000000 0.400000
vt 0.000000 0.600000
vt 0.200000 0.600000
vt 0.400000 0.600000
vt 0.600000 0.600000
vt 0.800000 0.600000
vt 1.000000 0.600000
vt 0.000000 0.800000
vt 0.200000 0.800000
vt 0.400000 0.800000
vt 0.600000 0.800000
vt 0.800000 0.800000
vt 1.000000 0.800000
vt 0.000000 1.000000
vt 0.200000 1.000000
vt 0.400000 1.000000
vt 0.600000 1.000000
vt 0.800000 1.000000
vt 1.000000 1.000000
vn 0.000000 1.000000 0.000000
vn 0.000000 1.000000 0.000000
vn 0.000000 1.000000 0.000000
vn 0.000000 1.000000 0.000000
vn 0.000000 1.000000 0.000000
vn 0.000000 1.000000 0.000000
vn 0.000000 1.000000 0.000000
vn 0.000000 1.000000 0.000000
vn 0.000000 1.000000 0.000000
vn 0.000000 1.000000 0.000000
vn 0.000000 1.000000 0.000000
vn 0.000000 1.000000 0.000000
vn 0.000000 1.000000 0.000000
vn 0.000000 1.000000 0.000000
vn 0.000000 1.000000 0.000000
vn 0.000000 1.000000 0.000000
vn 0.000000 1.000000 0.000000
vn 0.000000 1.000000 0.000000
vn 0.000000 1.000000 0.000000
vn 0.000000 1.000000 0.000000
vn 0.000000 1.000000 0.000000
vn 0.000000 1.000000 0.000000
vn 0.000000 1.000000 0.000000
vn 0.000000 1.000000 0.000000
vn 0.000000 1.000000 0.000000
vn 0.000000 1.000000 0.000000
vn 0.000000 1.000000 0.000000
vn 0.000000 1.000000 0.000000
vn -0.000000 1.000000 0.000000
vn -0.000000 1.000000 0.000000
vn 0.000000 1.000000 0.000000
vn 0.000000 1.000000 0.000000
vn 0.000000 1.000000 0.000000
vn 0.000000 1.000000 0.000000
vn -0.000000 1.000000 0.000000
vn -0.000000 1.000000 0.000000
s 1
g pPlane23 Inner_Walls Walls
usemtl aiStandardSurface7SG
f 1/1/1 2/2/2 8/8/3 7/7/4
f 2/2/2 3/3/5 9/9/6 8/8/3
f 3/3/5 4/4/7 10/10/8 9/9/6
f 4/4/7 5/5/9 11/11/10 10/10/8
f 5/5/9 6/6/11 12/12/12 11/11/10
f 7/7/4 8/8/3 14/14/13 13/13/14
f 8/8/3 9/9/6 15/15/15 14/14/13
f 9/9/6 10/10/8 16/16/16 15/15/15
f 10/10/8 11/11/10 17/17/17 16/16/16
f 11/11/10 12/12/12 18/18/18 17/17/17
f 13/13/14 14/14/13 20/20/19 19/19/20
f 14/14/13 15/15/15 21/21/21 20/20/19
f 15/15/15 16/16/16 22/22/22 21/21/21
f 16/16/16 17/17/17 23/23/23 22/22/22
f 17/17/17 18/18/18 24/24/24 23/23/23
f 19/19/20 20/20/19 26/26/25 25/25/26
f 20/20/19 21/21/21 27/27/27 26/26/25
f 21/21/21 22/22/22 28/28/28 27/27/27
f 22/22/22 23/23/23 29/29/29 28/28/28
f 23/23/23 24/24/24 30/30/30 29/29/29
f 25/25/26 26/26/25 32/32/31 31/31/32
f 26/26/25 27/27/27 33/33/33 32/32/31
f 27/27/27 28/28/28 34/34/34 33/33/33
f 28/28/28 29/29/29 35/35/35 34/34/34
f 29/29/29 30/30/30 36/36/36 35/35/35
g default
v -19.025108 17.015794 20.754664
v 27.201192 17.015794 20.754664
v -19.025107 17.015794 -10.377337
v 27.201192 17.015794 -10.377337
v -12.106889 17.015794 20.754664
v -12.106889 17.015794 -10.377337
v 19.025112 17.015794 20.754664
v 19.025112 17.015794 -10.377337
v -19.025108 17.015794 -53.764729
v 27.201192 17.015794 -53.784537
v 62.350560 17.015794 -10.377335
v 62.350560 17.015794 -53.784537
v -12.106889 17.015794 55.031316
v -19.025110 17.015794 55.031311
v -19.025108 17.015794 47.484156
v -12.106889 17.015794 47.484161
v 19.025112 17.015794 46.751706
v 27.201192 17.015794 46.751701
v 54.245152 17.015794 46.751706
v 54.245147 17.015794 20.754664
v 54.245147 17.015794 -10.377335
v 54.245147 17.015794 -53.784537
v 62.350560 17.015794 14.339150
v 54.245147 17.015794 14.339150
v 27.201192 17.015794 14.465372
v 19.025112 17.015794 14.465372
v -12.106889 17.015794 14.465372
v -19.025108 17.015794 14.465372
v -46.383533 17.015794 -53.764729
v -46.134221 17.015794 -10.377336
v -46.134221 17.015794 14.465373
v -46.134221 17.015794 20.754664
v -46.383533 17.015794 47.484161
v -46.383533 17.015794 55.031316
v -54.695822 17.015794 -53.764729
v 13.180926 17.015794 55.031316
v 13.180926 17.015794 46.751706
v 13.554359 17.015794 20.754664
v 13.554359 17.015794 -10.377337
v 62.350565 17.015794 -20.730195
v 54.245147 17.015794 -20.730195
v 27.201192 17.015794 -20.730195
v 19.025113 17.015794 -20.730195
v 13.554359 17.015794 -20.730195
v -12.106889 17.015794 -20.730195
v -19.025108 17.015794 -20.730195
v -46.383533 17.015794 -20.730195
v -54.695822 17.015794 -20.730195
v -63.050157 17.015794 -20.730195
v -63.050157 17.015794 -44.917512
v -63.050157 17.015794 -19.364517
v -54.695822 17.015794 -12.098260
v -46.383533 17.015794 -11.019990
v -53.290627 17.015794 -11.047726
v -46.134226 17.015794 29.437874
v -50.436739 17.015794 34.216933
v -53.026776 17.015794 40.166413
v -54.340305 17.015794 43.543709
v -53.905608 17.015794 47.484161
v -51.896102 17.015794 55.031316
v -46.383533 17.015794 59.831657
v -53.302705 17.015794 49.516179
v -37.167134 17.015794 62.578461
v -30.589074 17.015794 62.578466
v -21.749944 16.589839 55.272532
v -29.795521 16.589839 60.596639
v -26.904249 16.589839 60.387024
vt 0.384097 0.373560
vt 0.665713 0.373560
vt 0.384097 0.563220
vt 0.665713 0.563220
vt 0.426243 0.373560
vt 0.426243 0.563220
vt 0.615903 0.373560
vt 0.615903 0.563220
vt 0.384097 0.829511
vt 0.665713 0.829511
vt 0.886025 0.563220
vt 0.886025 0.829511
vt 0.426243 0.164742
vt 0.384097 0.164742
vt 0.384097 0.210720
vt 0.426243 0.210720
vt 0.615903 0.210720
vt 0.665713 0.210720
vt 0.830468 0.210720
vt 0.830468 0.373560
vt 0.830468 0.563220
vt 0.830468 0.829511
vt 0.886025 0.411875
vt 0.830468 0.411875
vt 0.665713 0.411875
vt 0.615903 0.411875
vt 0.426243 0.411875
vt 0.384097 0.411875
vt 0.217425 0.829511
vt 0.217425 0.563220
vt 0.217425 0.411875
vt 0.217425 0.373560
vt 0.217425 0.210720
vt 0.217425 0.164742
vt 0.166786 0.829511
vt 0.582575 0.164742
vt 0.582575 0.210720
vt 0.582575 0.373560
vt 0.582575 0.563220
vt 0.886025 0.626291
vt 0.830468 0.626291
vt 0.665713 0.626291
vt 0.615903 0.626291
vt 0.582575 0.626291
vt 0.426243 0.626291
vt 0.384097 0.626291
vt 0.217425 0.626291
vt 0.166786 0.626291
vt 0.115890 0.626291
vt 0.115890 0.773643
vt 0.115890 0.617971
vt 0.166786 0.573704
vt 0.217425 0.567135
vt 0.175347 0.567304
vt 0.217425 0.320661
vt 0.191214 0.291546
vt 0.176954 0.255301
vt 0.168952 0.234726
vt 0.171600 0.210720
vt 0.183842 0.164742
vt 0.217425 0.135498
vt 0.175273 0.198341
vt 0.273573 0.118764
vt 0.313647 0.118764
vt 0.381049 0.164742
vt 0.332034 0.132307
vt 0.349648 0.133584
vn -0.000000 1.000000 0.000000
vn 0.000000 1.000000 0.000000
vn 0.000000 1.000000 0.000000
vn -0.000000 1.000000 0.000000
vn 0.000000 1.000000 0.000000
vn 0.000000 1.000000 0.000000
vn 0.000000 1.000000 0.000000
vn 0.000000 1.000000 0.000000
vn 0.000000 1.000000 0.000000
vn 0.000000 1.000000 0.000000
vn -0.000000 1.000000 0.000000
vn 0.000000 1.000000 0.000000
vn 0.000000 1.000000 0.000000
vn -0.000000 1.000000 0.000000
vn 0.000000 1.000000 0.000000
vn 0.000000 1.000000 0.000000
vn 0.000000 1.000000 0.000000
vn 0.000000 1.000000 0.000000
vn 0.000000 1.000000 0.000000
vn 0.000000 1.000000 0.000000
vn 0.000000 1.000000 0.000000
vn 0.000000 1.000000 0.000000
vn 0.018892 0.999757 -0.011374
vn 0.019718 0.999735 -0.011871
vn 0.019718 0.999735 -0.011871
vn 0.019718 0.999735 -0.011871
vn 0.019718 0.999735 -0.011871
vn 0.002983 0.999758 0.021773
vn 0.006621 0.999925 0.010264
vn -0.000000 1.000000 0.000000
vn -0.000000 1.000000 0.000000
vn 0.000000 1.000000 0.000000
vn -0.000000 1.000000 0.000000
vn -0.000000 1.000000 0.000000
vn 0.000000 1.000000 0.000000
vn 0.000000 1.000000 0.000000
vn 0.000000 1.000000 0.000000
vn 0.000000 1.000000 0.000000
vn 0.000000 1.000000 0.000000
vn 0.000000 1.000000 0.000000
vn 0.000000 0.999988 0.004964
vn 0.000000 0.999985 0.005403
vn 0.000000 1.000000 0.000000
vn 0.000000 0.999748 0.022470
vn 0.000000 1.000000 0.000000
vn 0.000000 1.000000 0.000000
vn 0.000000 1.000000 0.000000
vn 0.000000 1.000000 0.000000
vn 0.000000 1.000000 0.000000
vn -0.000000 1.000000 0.000000
vn 0.000000 1.000000 0.000000
vn 0.000000 1.000000 0.000000
vn -0.000000 1.000000 0.000000
vn 0.000000 1.000000 0.000000
vn 0.000000 1.000000 0.000000
vn 0.000000 1.000000 -0.000000
vn 0.000000 1.000000 0.000000
vn 0.000000 1.000000 0.000000
vn 0.000000 1.000000 0.000000
vn 0.000000 1.000000 0.000000
vn 0.000000 1.000000 0.000000
vn 0.000000 1.000000 0.000000
vn 0.000000 1.000000 0.000000
vn 0.000000 1.000000 0.000000
vn -0.000000 1.000000 0.000000
vn -0.000000 1.000000 0.000000
vn 0.000000 1.000000 0.000000
s 1
g pPlane20 Blueprints
usemtl aiStandardSurface16SG
f 37/37/37 41/41/38 63/63/39 64/64/40
f 38/38/41 56/56/42 60/60/43 61/61/44
f 62/62/45 43/43/46 38/38/41 61/61/44
f 39/39/47 42/42/48 81/81/49 82/82/50
f 80/80/51 81/81/49 42/42/48 75/75/52
f 78/78/53 79/79/54 44/44/55 40/40/56
f 40/40/56 57/57/57 77/77/58 78/78/53
f 97/97/59 99/99/60 100/100/61 102/102/62 103/103/63 101/101/64 70/70/65
f 67/67/66 68/68/67 37/37/37 64/64/40
f 83/83/68 89/89/69 66/66/70 39/39/47 82/82/50
f 54/54/71 55/55/72 56/56/42 38/38/41
f 53/53/73 54/54/71 38/38/41 43/43/46
f 52/52/74 73/73/75 74/74/76 41/41/38
f 51/51/77 52/52/74 41/41/38 37/37/37
f 69/69/78 51/51/77 37/37/37 68/68/67 91/91/79
f 70/70/65 101/101/64 50/50/80 51/51/77 69/69/78
f 50/50/80 49/49/81 52/52/74 51/51/77
f 49/49/81 72/72/82 73/73/75 52/52/74
f 77/77/58 57/57/57 47/47/83 76/76/84
f 57/57/57 60/60/43 59/59/85 47/47/83
f 61/61/44 60/60/43 57/57/57 40/40/56
f 44/44/55 62/62/45 61/61/44 40/40/56
f 64/64/40 63/63/39 42/42/48 39/39/47
f 66/66/70 67/67/66 64/64/40 39/39/47
f 85/85/86 87/87/87 88/88/88 84/84/89
f 96/96/90 97/97/59 70/70/65
f 95/95/91 98/98/92 96/96/90 70/70/65 69/69/78
f 91/91/79 92/92/93 93/93/94 94/94/95 95/95/91 69/69/78
f 74/74/76 73/73/75 53/53/73 43/43/46
f 79/79/54 80/80/51 75/75/52 44/44/55
f 58/58/96 77/77/58 76/76/84 48/48/97
f 78/78/53 77/77/58 58/58/96 46/46/98
f 65/65/99 83/83/68 82/82/50 45/45/100
f 71/71/101 84/84/89 83/83/68 65/65/99
f 71/71/101 86/86/102 85/85/86 84/84/89
f 84/84/89 88/88/88 90/90/103 89/89/69 83/83/68
g default
v -46.461888 -0.180676 -54.031526
v 55.075612 -0.180676 -54.031526
v -46.461888 -0.180676 47.244960
v -46.461888 -0.180676 55.858675
v 14.095182 -0.180676 -54.031526
v 14.095182 -0.180676 -62.394759
v 14.095182 -0.180676 -10.440876
v 55.075612 -0.180676 -10.440876
v -46.461888 -0.180676 30.539561
v 14.095182 -0.180676 30.539561
v -21.403795 -0.180676 -54.031526
v -21.403795 -0.180676 -10.440876
v -21.403795 -0.180676 30.539561
v -21.403795 -0.180676 47.244960
v 29.234448 -0.180676 -54.031526
v 29.234448 -0.180676 -10.440876
v 29.234448 -0.180676 30.539561
v -21.403795 -0.180676 14.878245
v 14.095182 -0.180676 14.878245
v 29.234448 -0.180676 14.878245
v -53.936133 -0.180676 47.244960
v -54.078792 -0.180676 -54.031526
v -63.674652 -0.180676 -44.559628
v -63.674652 -0.180676 -20.272603
v -13.553231 -0.180676 -62.394759
v 21.682802 -0.180676 -62.394764
v -47.154361 -0.180676 30.539561
v -53.936133 -0.180676 42.072214
v -50.977083 -0.180676 34.900437
v -53.936133 -0.180676 48.622965
v -50.664904 -0.180676 55.858675
v -46.461888 -0.180676 59.959655
v -37.775248 -0.180676 62.714726
v -52.528429 -0.180676 53.281861
v -48.180196 -0.180676 58.717235
v -27.459528 -0.180676 60.163854
v 61.793016 -0.180676 -10.440876
v 61.793016 -0.180676 -54.031526
v 61.793016 -0.180676 13.602139
v 55.075612 -0.180676 13.602139
v 29.234448 -0.180676 13.602139
v 14.095182 -0.180676 13.602139
v -21.403795 -0.180676 13.602139
v 53.395657 -0.180676 30.539561
v 53.395657 -0.180676 14.878245
v 53.395657 -0.180676 13.602139
v 53.395657 -0.180676 -10.440876
v 53.395657 -0.180676 -54.031526
v 53.395657 -0.180676 46.197571
v 29.234448 -0.180676 46.197571
v 14.095182 -0.180676 46.197571
v -21.403795 -0.180676 46.197571
v -46.461888 -0.180676 46.197571
v 12.483471 -0.180676 47.244960
v 12.483471 -0.180676 46.197571
v 12.483471 -0.180676 30.539561
v 12.483471 -0.180676 14.878245
v 12.483471 -0.180676 13.602139
v 12.483471 -0.180676 -10.440876
v 12.483471 -0.180676 -54.031526
v 12.839900 -0.180676 -62.394759
v 12.483471 -0.180676 54.380008
v -21.403795 -0.180676 54.380008
v -46.461888 -0.180676 54.380008
v -21.403795 -0.180676 55.197960
v -22.112664 -0.180676 55.858675
v -26.517497 -0.180676 60.367036
v -28.561647 -0.180676 61.121989
v -33.263776 -0.180676 62.714726
v -45.671751 -0.180676 54.380008
v -45.671751 -0.180676 47.244965
v -45.671751 -0.180676 46.197571
v -45.671751 -0.180676 30.539561
v -45.671751 -0.180676 14.878245
v -45.671751 -0.180676 13.602139
v -45.671751 -0.180676 -10.440876
v -45.671751 -0.180676 -54.031526
v -45.671747 -0.180676 -11.588339
v -46.461888 -0.180676 -11.588355
v -54.325272 -0.180676 -11.438698
vt 0.216948 0.829167
vt 0.835528 0.829167
vt 0.216948 0.212178
vt 0.216948 0.159702
vt 0.585870 0.829167
vt 0.585870 0.880117
vt 0.585870 0.563607
vt 0.835528 0.563607
vt 0.216948 0.313949
vt 0.585870 0.313949
vt 0.369605 0.829167
vt 0.369605 0.563607
vt 0.369605 0.313949
vt 0.369605 0.212178
vt 0.678100 0.829167
vt 0.678100 0.563607
vt 0.678100 0.313949
vt 0.369605 0.409360
vt 0.585870 0.409360
vt 0.678100 0.409360
vt 0.171414 0.212178
vt 0.170545 0.829167
vt 0.112086 0.771463
vt 0.112086 0.623503
vt 0.417432 0.880117
vt 0.632095 0.880117
vt 0.212730 0.313949
vt 0.171414 0.243691
vt 0.189441 0.287382
vt 0.171414 0.203783
vt 0.191343 0.159702
vt 0.216948 0.134718
vt 0.269868 0.117934
vt 0.179990 0.175400
vt 0.206480 0.142287
vt 0.332713 0.133474
vt 0.876451 0.563607
vt 0.876451 0.829167
vt 0.876451 0.417134
vt 0.835528 0.417134
vt 0.678100 0.417134
vt 0.585870 0.417134
vt 0.369605 0.417134
vt 0.825293 0.313949
vt 0.825293 0.409360
vt 0.825293 0.417134
vt 0.825293 0.563607
vt 0.825293 0.829167
vt 0.825293 0.218558
vt 0.678100 0.218558
vt 0.585870 0.218558
vt 0.369605 0.218558
vt 0.216948 0.218558
vt 0.576051 0.212178
vt 0.576051 0.218558
vt 0.576051 0.313949
vt 0.576051 0.409360
vt 0.576051 0.417134
vt 0.576051 0.563607
vt 0.576051 0.829167
vt 0.578222 0.880117
vt 0.576051 0.168710
vt 0.369605 0.168710
vt 0.216948 0.168710
vt 0.369605 0.163727
vt 0.365287 0.159702
vt 0.338452 0.132236
vt 0.325999 0.127637
vt 0.297353 0.117934
vt 0.221762 0.168710
vt 0.221762 0.212178
vt 0.221762 0.218558
vt 0.221762 0.313949
vt 0.221762 0.409360
vt 0.221762 0.417134
vt 0.221762 0.563607
vt 0.221762 0.829167
vt 0.221762 0.570598
vt 0.216948 0.570598
vt 0.169043 0.569686
vn 0.000000 1.000000 0.000000
vn 0.000000 1.000000 0.000000
vn 0.000000 1.000000 0.000000
vn 0.000000 1.000000 0.000000
vn 0.000000 1.000000 0.000000
vn 0.000000 1.000000 0.000000
vn 0.000000 1.000000 0.000000
vn 0.000000 1.000000 0.000000
vn 0.000000 1.000000 0.000000
vn 0.000000 1.000000 0.000000
vn -0.000000 1.000000 0.000000
vn 0.000000 1.000000 0.000000
vn 0.000000 1.000000 0.000000
vn 0.000000 1.000000 0.000000
vn 0.000000 1.000000 0.000000
vn 0.000000 1.000000 0.000000
vn 0.000000 1.000000 0.000000
vn 0.000000 1.000000 0.000000
vn 0.000000 1.000000 0.000000
vn 0.000000 1.000000 0.000000
vn 0.000000 1.000000 0.000000
vn 0.000000 1.000000 0.000000
vn -0.000000 1.000000 0.000000
vn 0.000000 1.000000 0.000000
vn 0.000000 1.000000 0.000000
vn -0.000000 1.000000 0.000000
vn 0.000000 1.000000 0.000000
vn 0.000000 1.000000 0.000000
vn 0.000000 1.000000 0.000000
vn 0.000000 1.000000 0.000000
vn -0.000000 1.000000 0.000000
vn 0.000000 1.000000 0.000000
vn 0.000000 1.000000 0.000000
vn 0.000000 1.000000 0.000000
vn 0.000000 1.000000 0.000000
vn 0.000000 1.000000 0.000000
vn 0.000000 1.000000 0.000000
vn 0.000000 1.000000 0.000000
vn 0.000000 1.000000 0.000000
vn 0.000000 1.000000 -0.000000
vn 0.000000 1.000000 -0.000000
vn -0.000000 1.000000 -0.000000
vn 0.000000 1.000000 -0.000000
vn 0.000000 1.000000 0.000000
vn 0.000000 1.000000 -0.000000
vn 0.000000 1.000000 -0.000000
vn 0.000000 1.000000 -0.000000
vn 0.000000 1.000000 0.000000
vn 0.000000 1.000000 0.000000
vn 0.000000 1.000000 0.000000
vn 0.000000 1.000000 0.000000
vn -0.000000 1.000000 0.000000
vn -0.000000 1.000000 0.000000
vn 0.000000 1.000000 0.000000
vn 0.000000 1.000000 0.000000
vn 0.000000 1.000000 0.000000
vn 0.000000 1.000000 0.000000
vn 0.000000 1.000000 0.000000
vn 0.000000 1.000000 0.000000
vn -0.000000 1.000000 0.000000
vn 0.000000 1.000000 0.000000
vn -0.000000 1.000000 0.000000
vn -0.000000 1.000000 -0.000000
vn 0.000000 1.000000 0.000000
vn -0.000000 1.000000 -0.000000
vn -0.000000 1.000000 -0.000000
vn -0.000000 1.000000 -0.000000
vn -0.000000 1.000000 -0.000000
vn -0.000000 1.000000 -0.000000
vn 0.000000 1.000000 0.000000
vn 0.000000 1.000000 0.000000
vn 0.000000 1.000000 0.000000
vn 0.000000 1.000000 0.000000
vn 0.000000 1.000000 0.000000
vn -0.000000 1.000000 0.000000
vn 0.000000 1.000000 0.000000
vn -0.000000 1.000000 0.000000
vn -0.000000 1.000000 0.000000
vn -0.000000 1.000000 0.000000
vn -0.000000 1.000000 0.000000
s 1
g Blueprints pPlane1
usemtl aiStandardSurface16SG
f 114/114/104 163/163/105 164/164/106 128/128/107
f 115/115/108 162/162/109 163/163/105 114/114/104
f 111/111/110 140/140/111 141/141/112 105/105/113
f 118/118/114 119/119/115 150/150/116 151/151/117
f 121/121/118 160/160/119 161/161/120 146/146/121
f 149/149/122 144/144/123 123/123/124 148/148/125
f 117/117/126 157/157/127 158/158/128 155/155/129
f 106/106/130 174/174/131 175/175/132 156/156/133
f 108/108/134 110/110/135 119/119/115 118/118/114
f 123/123/124 144/144/123 145/145/136 122/122/137
f 116/116/138 159/159/139 160/160/119 121/121/118
f 120/120/140 123/123/124 122/122/137 113/113/141
f 148/148/125 123/123/124 120/120/140 147/147/142
f 134/134/143 138/138/144 135/135/145 107/107/146
f 124/124/147 133/133/148 137/137/149 134/134/143 107/107/146 167/167/150 106/106/130
f 130/130/151 132/132/152 131/131/153 124/124/147 106/106/130 156/156/133 112/112/154
f 109/109/155 108/108/134 118/118/114 129/129/156
f 143/143/157 142/142/158 140/140/111 111/111/110
f 150/150/116 119/119/115 144/144/123 149/149/122
f 145/145/136 144/144/123 119/119/115 110/110/135
f 146/146/121 161/161/120 162/162/109 115/115/108
f 111/111/110 150/150/116 149/149/122 143/143/157
f 151/151/117 150/150/116 111/111/110 105/105/113
f 147/147/142 120/120/140 153/153/159 152/152/160
f 154/154/161 153/153/159 120/120/140 113/113/141
f 155/155/129 158/158/128 159/159/139 116/116/138
f 156/156/133 175/175/132 176/176/162 112/112/154
f 159/159/139 158/158/128 154/154/161 113/113/141
f 160/160/119 159/159/139 113/113/141 122/122/137
f 161/161/120 160/160/119 122/122/137 145/145/136
f 162/162/109 161/161/120 145/145/136 110/110/135
f 163/163/105 162/162/109 110/110/135 108/108/134
f 164/164/106 163/163/105 108/108/134 109/109/155
f 166/166/163 165/165/164 157/157/127 117/117/126
f 167/167/150 173/173/165 174/174/131 106/106/130
f 107/107/146 169/169/166 168/168/167 166/166/163 173/173/165 167/167/150
f 135/135/145 136/136/168 172/172/169 171/171/170 139/139/171 170/170/172 169/169/166 107/107/146
f 173/173/165 166/166/163 117/117/126 174/174/131
f 175/175/132 174/174/131 117/117/126 155/155/129
f 176/176/162 175/175/132 155/155/129 116/116/138
f 177/177/173 176/176/162 116/116/138 121/121/118
f 178/178/174 177/177/173 121/121/118 146/146/121
f 179/179/175 178/178/174 146/146/121 115/115/108
f 180/180/176 181/181/177 179/179/175 115/115/108 114/114/104
f 182/182/178 181/181/177 180/180/176 104/104/179
f 127/127/180 183/183/181 182/182/178 104/104/179 125/125/182 126/126/183
